<svg width="60" height="60" viewBox="0 0 60 60" fill="none" xmlns="http://www.w3.org/2000/svg">
<path d="M15 55C13.625 55 12.4479 54.5104 11.4688 53.5312C10.4896 52.5521 10 51.375 10 50V25C10 23.625 10.4896 22.4479 11.4688 21.4688C12.4479 20.4896 13.625 20 15 20H17.5V15C17.5 11.5417 18.7188 8.59375 21.1562 6.15625C23.5938 3.71875 26.5417 2.5 30 2.5C33.4583 2.5 36.4062 3.71875 38.8438 6.15625C41.2812 8.59375 42.5 11.5417 42.5 15V20H45C46.375 20 47.5521 20.4896 48.5312 21.4688C49.5104 22.4479 50 23.625 50 25V50C50 51.375 49.5104 52.5521 48.5312 53.5312C47.5521 54.5104 46.375 55 45 55H15ZM15 50H45V25H15V50ZM30 42.5C31.375 42.5 32.5521 42.0104 33.5312 41.0312C34.5104 40.0521 35 38.875 35 37.5C35 36.125 34.5104 34.9479 33.5312 33.9688C32.5521 32.9896 31.375 32.5 30 32.5C28.625 32.5 27.4479 32.9896 26.4688 33.9688C25.4896 34.9479 25 36.125 25 37.5C25 38.875 25.4896 40.0521 26.4688 41.0312C27.4479 42.0104 28.625 42.5 30 42.5ZM22.5 20H37.5V15C37.5 12.9167 36.7708 11.1458 35.3125 9.6875C33.8542 8.22917 32.0833 7.5 30 7.5C27.9167 7.5 26.1458 8.22917 24.6875 9.6875C23.2292 11.1458 22.5 12.9167 22.5 15V20Z" fill="#59AEA6"/>
</svg>
