<svg width="50" height="50" viewBox="0 0 50 50" fill="none" xmlns="http://www.w3.org/2000/svg">
<path d="M48.5 30.625L30.625 48.5C30.125 49 29.5625 49.375 28.9375 49.625C28.3125 49.875 27.6875 50 27.0625 50C26.4375 50 25.8125 49.875 25.1875 49.625C24.5625 49.375 24 49 23.5 48.5L1.4375 26.4375C0.979167 25.9792 0.625 25.4479 0.375 24.8438C0.125 24.2396 0 23.6042 0 22.9375V5C0 3.625 0.489583 2.44792 1.46875 1.46875C2.44792 0.489583 3.625 0 5 0H22.9375C23.6042 0 24.25 0.135417 24.875 0.40625C25.5 0.677083 26.0417 1.04167 26.5 1.5L48.5 23.5625C49 24.0625 49.3646 24.625 49.5938 25.25C49.8229 25.875 49.9375 26.5 49.9375 27.125C49.9375 27.75 49.8229 28.3646 49.5938 28.9688C49.3646 29.5729 49 30.125 48.5 30.625ZM27.0625 45L44.9375 27.125L22.875 5H5V22.875L27.0625 45ZM11.25 15C12.2917 15 13.1771 14.6354 13.9062 13.9062C14.6354 13.1771 15 12.2917 15 11.25C15 10.2083 14.6354 9.32292 13.9062 8.59375C13.1771 7.86458 12.2917 7.5 11.25 7.5C10.2083 7.5 9.32292 7.86458 8.59375 8.59375C7.86458 9.32292 7.5 10.2083 7.5 11.25C7.5 12.2917 7.86458 13.1771 8.59375 13.9062C9.32292 14.6354 10.2083 15 11.25 15Z" fill="#59AEA6"/>
</svg>
