<svg width="40" height="40" viewBox="0 0 40 40" fill="none" xmlns="http://www.w3.org/2000/svg">
<path d="M26 30H32C32.5667 30 33.0417 29.7604 33.425 29.2812C33.8083 28.8021 34 28.2083 34 27.5V12.5C34 11.7917 33.8083 11.1979 33.425 10.7188C33.0417 10.2396 32.5667 10 32 10H26C25.4333 10 24.9583 10.2396 24.575 10.7188C24.1917 11.1979 24 11.7917 24 12.5V27.5C24 28.2083 24.1917 28.8021 24.575 29.2812C24.9583 29.7604 25.4333 30 26 30ZM28 25V15H30V25H28ZM14 30H20C20.5667 30 21.0417 29.7604 21.425 29.2812C21.8083 28.8021 22 28.2083 22 27.5V12.5C22 11.7917 21.8083 11.1979 21.425 10.7188C21.0417 10.2396 20.5667 10 20 10H14C13.4333 10 12.9583 10.2396 12.575 10.7188C12.1917 11.1979 12 11.7917 12 12.5V27.5C12 28.2083 12.1917 28.8021 12.575 29.2812C12.9583 29.7604 13.4333 30 14 30ZM16 25V15H18V25H16ZM6 30H10V10H6V30ZM0 40V0H40V40H0ZM4 35H36V5H4V35Z" fill="#59AEA6"/>
</svg>
