<svg width="46" height="50" viewBox="0 0 46 50" fill="none" xmlns="http://www.w3.org/2000/svg">
<path d="M8 50C5.91667 50 4.14583 49.2708 2.6875 47.8125C1.22917 46.3542 0.5 44.5833 0.5 42.5V35H8V0L11.75 3.75L15.5 0L19.25 3.75L23 0L26.75 3.75L30.5 0L34.25 3.75L38 0L41.75 3.75L45.5 0V42.5C45.5 44.5833 44.7708 46.3542 43.3125 47.8125C41.8542 49.2708 40.0833 50 38 50H8ZM38 45C38.7083 45 39.3021 44.7604 39.7812 44.2812C40.2604 43.8021 40.5 43.2083 40.5 42.5V7.5H13V35H35.5V42.5C35.5 43.2083 35.7396 43.8021 36.2188 44.2812C36.6979 44.7604 37.2917 45 38 45ZM15.5 17.5V12.5H30.5V17.5H15.5ZM15.5 25V20H30.5V25H15.5ZM35.5 17.5C34.7917 17.5 34.1979 17.2604 33.7188 16.7812C33.2396 16.3021 33 15.7083 33 15C33 14.2917 33.2396 13.6979 33.7188 13.2188C34.1979 12.7396 34.7917 12.5 35.5 12.5C36.2083 12.5 36.8021 12.7396 37.2812 13.2188C37.7604 13.6979 38 14.2917 38 15C38 15.7083 37.7604 16.3021 37.2812 16.7812C36.8021 17.2604 36.2083 17.5 35.5 17.5ZM35.5 25C34.7917 25 34.1979 24.7604 33.7188 24.2812C33.2396 23.8021 33 23.2083 33 22.5C33 21.7917 33.2396 21.1979 33.7188 20.7188C34.1979 20.2396 34.7917 20 35.5 20C36.2083 20 36.8021 20.2396 37.2812 20.7188C37.7604 21.1979 38 21.7917 38 22.5C38 23.2083 37.7604 23.8021 37.2812 24.2812C36.8021 24.7604 36.2083 25 35.5 25ZM8 45H30.5V40H5.5V42.5C5.5 43.2083 5.73958 43.8021 6.21875 44.2812C6.69792 44.7604 7.29167 45 8 45Z" fill="#59AEA6"/>
</svg>
