<svg width="60" height="60" viewBox="0 0 60 60" fill="none" xmlns="http://www.w3.org/2000/svg">
<path d="M30 50C28 48.4167 25.8333 47.1875 23.5 46.3125C21.1667 45.4375 18.75 45 16.25 45C14.5 45 12.7812 45.2292 11.0938 45.6875C9.40625 46.1458 7.79167 46.7917 6.25 47.625C5.375 48.0833 4.53125 48.0625 3.71875 47.5625C2.90625 47.0625 2.5 46.3333 2.5 45.375V15.25C2.5 14.7917 2.61458 14.3542 2.84375 13.9375C3.07292 13.5208 3.41667 13.2083 3.875 13C5.79167 12 7.79167 11.25 9.875 10.75C11.9583 10.25 14.0833 10 16.25 10C18.6667 10 21.0312 10.3125 23.3438 10.9375C25.6562 11.5625 27.875 12.5 30 13.75V44C32.125 42.6667 34.3542 41.6667 36.6875 41C39.0208 40.3333 41.375 40 43.75 40C45.25 40 46.7188 40.125 48.1562 40.375C49.5938 40.625 51.0417 41 52.5 41.5V11.5C53.125 11.7083 53.7396 11.9271 54.3438 12.1562C54.9479 12.3854 55.5417 12.6667 56.125 13C56.5833 13.2083 56.9271 13.5208 57.1562 13.9375C57.3854 14.3542 57.5 14.7917 57.5 15.25V45.375C57.5 46.3333 57.0938 47.0625 56.2812 47.5625C55.4688 48.0625 54.625 48.0833 53.75 47.625C52.2083 46.7917 50.5938 46.1458 48.9062 45.6875C47.2188 45.2292 45.5 45 43.75 45C41.25 45 38.8333 45.4375 36.5 46.3125C34.1667 47.1875 32 48.4167 30 50ZM35 37.5V13.75L47.5 1.25V26.25L35 37.5ZM25 41.5625V16.8125C23.625 16.2292 22.1979 15.7812 20.7188 15.4688C19.2396 15.1562 17.75 15 16.25 15C14.7083 15 13.2083 15.1458 11.75 15.4375C10.2917 15.7292 8.875 16.1667 7.5 16.75V41.5625C8.95833 41.0208 10.4062 40.625 11.8438 40.375C13.2812 40.125 14.75 40 16.25 40C17.75 40 19.2188 40.125 20.6562 40.375C22.0938 40.625 23.5417 41.0208 25 41.5625Z" fill="#59AEA6"/>
</svg>
